<svg width="23" height="23" viewBox="0 0 23 23" fill="none" xmlns="http://www.w3.org/2000/svg">
<path d="M19.6318 3.36824C17.4597 1.19618 14.5718 0 11.5 0C8.42824 0 5.5403 1.19618 3.36824 3.36824C1.19622 5.5403 0 8.42824 0 11.5C0 14.5718 1.19622 17.4597 3.36824 19.6318C5.5403 21.8038 8.42824 23 11.5 23C14.5718 23 17.4597 21.8038 19.6318 19.6318C21.8038 17.4597 23 14.5718 23 11.5C23 8.42824 21.8038 5.5403 19.6318 3.36824ZM11.5 21.6523C5.90197 21.6523 1.34766 17.098 1.34766 11.5C1.34766 5.90197 5.90197 1.34766 11.5 1.34766C17.098 1.34766 21.6523 5.90197 21.6523 11.5C21.6523 17.098 17.098 21.6523 11.5 21.6523Z" fill="#63D673"/>
<path d="M12.2219 10.8262H10.7784C9.95597 10.8262 9.28695 10.1572 9.28695 9.33486C9.28695 8.51248 9.95601 7.84346 10.7784 7.84346H13.6654C14.0375 7.84346 14.3392 7.54176 14.3392 7.16963C14.3392 6.7975 14.0375 6.4958 13.6654 6.4958H12.1739V5.00439C12.1739 4.63226 11.8723 4.33057 11.5001 4.33057C11.128 4.33057 10.8263 4.63226 10.8263 5.00439V6.4958H10.7784C9.21291 6.4958 7.93933 7.76943 7.93933 9.33486C7.93933 10.9003 9.21296 12.1739 10.7784 12.1739H12.2219C13.0443 12.1739 13.7133 12.8429 13.7133 13.6653C13.7133 14.4876 13.0443 15.1567 12.2219 15.1567H9.33492C8.96279 15.1567 8.66109 15.4584 8.66109 15.8305C8.66109 16.2027 8.96279 16.5044 9.33492 16.5044H10.8263V17.9958C10.8263 18.3679 11.128 18.6696 11.5001 18.6696C11.8723 18.6696 12.1739 18.3679 12.1739 17.9958V16.5044H12.2219C13.7873 16.5044 15.0609 15.2307 15.0609 13.6653C15.0609 12.0999 13.7873 10.8262 12.2219 10.8262Z" fill="#63D673"/>
</svg>
