<svg width="15" height="15" viewBox="0 0 15 15" fill="none" xmlns="http://www.w3.org/2000/svg">
<g clip-path="url(#clip0)">
<path d="M14.0285 0.972017C12.7373 -0.322378 10.6375 -0.322378 9.34632 0.972017L0.76176 9.55338C0.694643 9.6205 0.653095 9.70679 0.640311 9.79948L0.00429894 14.5104C-0.0148773 14.6447 0.0330633 14.7789 0.125748 14.8716C0.205649 14.9515 0.317511 14.9994 0.429372 14.9994C0.448548 14.9994 0.467725 14.9994 0.486901 14.9962L3.32498 14.6127C3.56149 14.5807 3.72768 14.3634 3.69572 14.1269C3.66376 13.8904 3.44643 13.7242 3.20993 13.7562L0.934346 14.063L1.3786 10.7775L4.83671 14.2356C4.91661 14.3155 5.02847 14.3634 5.14033 14.3634C5.25219 14.3634 5.36406 14.3187 5.44396 14.2356L14.0285 5.65421C14.6549 5.02779 15.0001 4.19682 15.0001 3.31152C15.0001 2.42621 14.6549 1.59525 14.0285 0.972017ZM9.51251 2.02671L10.9539 3.46812L3.12044 11.3016L1.67902 9.8602L9.51251 2.02671ZM5.14353 13.3215L3.73408 11.9121L11.5676 4.07857L12.977 5.48802L5.14353 13.3215ZM13.5779 4.87118L10.1293 1.42266C10.5672 1.06151 11.1137 0.863352 11.689 0.863352C12.3442 0.863352 12.9578 1.11904 13.4213 1.57926C13.8847 2.03949 14.1372 2.65633 14.1372 3.31152C14.1372 3.89 13.939 4.43333 13.5779 4.87118Z" fill="#5A9F63"/>
</g>
<defs>
<clipPath id="clip0">
<rect width="15" height="15" fill="white"/>
</clipPath>
</defs>
</svg>
