<svg width="22" height="22" viewBox="0 0 22 22" fill="none" xmlns="http://www.w3.org/2000/svg">
<g clip-path="url(#clip0)">
<path d="M21.3119 10.3129H12.6037C12.2242 10.3129 11.9163 10.0049 11.9163 9.62538C11.9163 9.24589 12.2242 8.9379 12.6037 8.9379H21.3119C21.6913 8.9379 21.9993 9.24589 21.9993 9.62538C21.9993 10.0049 21.6913 10.3129 21.3119 10.3129Z" fill="#FAFAFA"/>
<path d="M17.8743 13.7503C17.6983 13.7503 17.5224 13.6833 17.3884 13.5487C17.1199 13.28 17.1199 12.8446 17.3884 12.576L20.3401 9.62454L17.3884 6.67288C17.1199 6.40433 17.1199 5.96895 17.3884 5.70041C17.6571 5.43169 18.0925 5.43169 18.3611 5.70041L21.7985 9.1378C22.067 9.40635 22.067 9.84173 21.7985 10.1103L18.3611 13.5477C18.2263 13.6833 18.0504 13.7503 17.8743 13.7503Z" fill="#FAFAFA"/>
<path d="M7.33316 22.0001C7.13695 22.0001 6.95082 21.9725 6.76485 21.9148L1.2484 20.0769C0.497818 19.8148 0 19.1154 0 18.3336V1.83406C0 0.822988 0.822255 0.000732422 1.83333 0.000732422C2.02937 0.000732422 2.21551 0.0282584 2.40164 0.0859959L7.91792 1.92386C8.66868 2.18603 9.16633 2.88542 9.16633 3.66723V20.1667C9.16633 21.1778 8.34424 22.0001 7.33316 22.0001ZM1.83333 1.37569C1.58123 1.37569 1.37496 1.58197 1.37496 1.83406V18.3336C1.37496 18.5288 1.50604 18.7102 1.69302 18.7753L7.18361 20.605C7.22306 20.6177 7.27442 20.6251 7.33316 20.6251C7.58526 20.6251 7.79137 20.4188 7.79137 20.1667V3.66723C7.79137 3.47203 7.66028 3.29059 7.47331 3.22547L1.98271 1.39583C1.94327 1.38307 1.89191 1.37569 1.83333 1.37569Z" fill="#FAFAFA"/>
<path d="M13.9786 7.33383C13.5991 7.33383 13.2911 7.02584 13.2911 6.64635V2.52148C13.2911 1.88989 12.777 1.37563 12.1454 1.37563H1.83323C1.45374 1.37563 1.14575 1.06764 1.14575 0.68815C1.14575 0.30866 1.45374 0.000671387 1.83323 0.000671387H12.1454C13.536 0.000671387 14.6661 1.13092 14.6661 2.52148V6.64635C14.6661 7.02584 14.3581 7.33383 13.9786 7.33383Z" fill="#FAFAFA"/>
<path d="M12.1454 19.2501H8.47874C8.09925 19.2501 7.79126 18.9421 7.79126 18.5626C7.79126 18.1831 8.09925 17.8751 8.47874 17.8751H12.1454C12.777 17.8751 13.2911 17.3608 13.2911 16.7292V12.6044C13.2911 12.2249 13.5991 11.9169 13.9786 11.9169C14.3581 11.9169 14.666 12.2249 14.666 12.6044V16.7292C14.666 18.1198 13.536 19.2501 12.1454 19.2501Z" fill="#FAFAFA"/>
</g>
<defs>
<clipPath id="clip0">
<rect width="22" height="22" fill="white"/>
</clipPath>
</defs>
</svg>
