<svg width="25" height="25" viewBox="0 0 25 25" fill="none" xmlns="http://www.w3.org/2000/svg">
<path d="M4.6874 13.5417C3.252 13.5417 2.08325 14.7104 2.08325 16.1458C2.08325 17.5812 3.252 18.75 4.6874 18.75C6.1228 18.75 7.29155 17.5813 7.29155 16.1459C7.29155 14.7105 6.1228 13.5417 4.6874 13.5417ZM4.6874 17.7084C3.82593 17.7084 3.1249 17.0073 3.1249 16.1459C3.1249 15.2844 3.82593 14.5834 4.6874 14.5834C5.54888 14.5834 6.2499 15.2844 6.2499 16.1459C6.2499 17.0073 5.54888 17.7084 4.6874 17.7084Z" fill="white"/>
<path d="M20.3124 13.5417C18.877 13.5417 17.7083 14.7104 17.7083 16.1458C17.7083 17.5812 18.877 18.75 20.3124 18.75C21.7478 18.75 22.9166 17.5813 22.9166 16.1459C22.9166 14.7105 21.7478 13.5417 20.3124 13.5417ZM20.3124 17.7084C19.4509 17.7084 18.7499 17.0073 18.7499 16.1459C18.7499 15.2844 19.4509 14.5834 20.3124 14.5834C21.1739 14.5834 21.8749 15.2844 21.8749 16.1459C21.8749 17.0073 21.1739 17.7084 20.3124 17.7084Z" fill="white"/>
<path d="M21.875 10.4166H20.9937C20.6719 10.4166 20.3563 10.3063 20.1042 10.1042L16 6.8208C15.5396 6.45313 14.9615 6.25 14.3729 6.25H6.84375C5.97085 6.25 5.16147 6.68335 4.6771 7.40938L3.79063 8.74062C3.525 9.1375 3.08125 9.375 2.60415 9.375C1.16875 9.375 0 10.5437 0 11.9791V14.0625C0 15.4979 1.16875 16.6667 2.60415 16.6667C2.89165 16.6667 3.125 16.4333 3.125 16.1458C3.125 15.8583 2.89165 15.625 2.60415 15.625C1.74268 15.625 1.04165 14.924 1.04165 14.0625V11.9791C1.04165 11.1177 1.74268 10.4166 2.60415 10.4166C3.43125 10.4166 4.1979 10.0063 4.65728 9.31768L5.54375 7.98745C5.83438 7.55205 6.32085 7.2916 6.84375 7.2916H14.3729C14.7271 7.2916 15.0729 7.41348 15.35 7.63433L19.4541 10.9166C19.8885 11.2656 20.4364 11.4583 20.9948 11.4583H21.875C23.4031 11.4583 23.9583 13.0155 23.9583 14.0624C23.9583 15.0884 23.1729 15.6249 22.3958 15.6249C22.1083 15.6249 21.875 15.8583 21.875 16.1458C21.875 16.4333 22.1083 16.6666 22.3958 16.6666C23.8802 16.6667 25 15.5469 25 14.0625C25 12.2948 23.9052 10.4166 21.875 10.4166Z" fill="white"/>
<path d="M18.2292 15.625H6.77085C6.48335 15.625 6.25 15.8583 6.25 16.1458C6.25 16.4333 6.48335 16.6667 6.77085 16.6667H18.2292C18.5167 16.6667 18.75 16.4333 18.75 16.1458C18.75 15.8583 18.5167 15.625 18.2292 15.625Z" fill="white"/>
<path d="M17.1875 10.4166H12.5V8.85415C12.5 8.56665 12.2666 8.3333 11.9791 8.3333C11.6916 8.3333 11.4583 8.56665 11.4583 8.85415V10.9375C11.4583 11.225 11.6916 11.4583 11.9791 11.4583H17.1875C17.475 11.4583 17.7083 11.225 17.7083 10.9375C17.7083 10.65 17.475 10.4166 17.1875 10.4166Z" fill="white"/>
<path d="M9.89593 10.4166H6.57196L7.23758 9.0875C7.36571 8.83022 7.26156 8.51772 7.00423 8.38852C6.74589 8.2604 6.43446 8.36352 6.30526 8.62187L5.26361 10.7052C5.18236 10.8656 5.19173 11.0583 5.28651 11.2115C5.38129 11.3646 5.54901 11.4583 5.72923 11.4583H9.89588C10.1834 11.4583 10.4167 11.225 10.4167 10.9375C10.4167 10.65 10.1834 10.4166 9.89593 10.4166Z" fill="white"/>
<path d="M14.0625 12.5H13.0208C12.7333 12.5 12.5 12.7333 12.5 13.0208C12.5 13.3083 12.7333 13.5417 13.0208 13.5417H14.0625C14.35 13.5417 14.5833 13.3083 14.5833 13.0208C14.5833 12.7333 14.35 12.5 14.0625 12.5Z" fill="white"/>
</svg>
