<svg width="23" height="22" viewBox="0 0 23 22" fill="none" xmlns="http://www.w3.org/2000/svg">
<g clip-path="url(#clip0)">
<path d="M22.0417 11.76H0.958333C0.429331 11.76 0 11.3541 0 10.8539C0 10.3538 0.429331 9.94788 0.958333 9.94788H22.0417C22.5707 9.94788 23 10.3538 23 10.8539C23 11.3541 22.5707 11.76 22.0417 11.76Z" fill="white"/>
<path d="M22.0417 4.81347H0.958333C0.429331 4.81347 0 4.40755 0 3.9074C0 3.40726 0.429331 3.00134 0.958333 3.00134H22.0417C22.5707 3.00134 23 3.40726 23 3.9074C23 4.40755 22.5707 4.81347 22.0417 4.81347Z" fill="white"/>
<path d="M22.0417 18.7063H0.958333C0.429331 18.7063 0 18.3004 0 17.8002C0 17.3001 0.429331 16.8942 0.958333 16.8942H22.0417C22.5707 16.8942 23 17.3001 23 17.8002C23 18.3004 22.5707 18.7063 22.0417 18.7063Z" fill="white"/>
</g>
<defs>
<clipPath id="clip0">
<rect width="23" height="21.7455" fill="white"/>
</clipPath>
</defs>
</svg>
