<svg width="25" height="25" viewBox="0 0 25 25" fill="none" xmlns="http://www.w3.org/2000/svg">
<path d="M22.0032 15.1188C21.6655 15.1188 21.341 15.1758 21.0379 15.2793L20.6251 14.4536C21.0566 14.2904 21.5216 14.2009 22.0032 14.2009C22.5473 14.2009 23.0738 14.3102 23.5679 14.526C23.7728 14.6153 24.0116 14.5218 24.1011 14.3169C24.1905 14.1118 24.0969 13.8731 23.892 13.7836C23.2949 13.5231 22.6595 13.3909 22.0032 13.3909C21.3927 13.3909 20.8042 13.51 20.2615 13.7265L18.7612 10.726C18.8322 10.7383 18.905 10.7451 18.9795 10.7451H19.8434C20.0671 10.7451 20.2484 10.5639 20.2484 10.3402V8.61232C20.2484 8.38861 20.0671 8.20735 19.8434 8.20735H18.9795C18.4867 8.20735 18.059 8.48986 17.8489 8.9013L17.4206 8.04482C17.2043 7.61216 16.7694 7.34342 16.2857 7.34342H15.5238C15.3001 7.34342 15.1188 7.52468 15.1188 7.74839C15.1188 7.97209 15.3001 8.15335 15.5238 8.15335H16.2857C16.4606 8.15335 16.618 8.2506 16.6962 8.40708L17.745 10.5047L17.5481 10.6031C17.1154 10.8194 16.8467 11.2543 16.8467 11.7381V15.9827H13.3639C12.6345 15.9827 12.041 15.3893 12.041 14.6598V12.905H12.068C12.7677 12.905 13.3369 12.3358 13.3369 11.6361C13.3369 10.9364 12.7677 10.3672 12.068 10.3672H8.61231C8.26539 10.3672 7.9507 10.5072 7.72138 10.7336V4.72463C7.72138 4.26313 7.34595 3.8877 6.88445 3.8877H0.836933C0.375432 3.8877 0 4.26313 0 4.72463V10.7721C0 11.2336 0.375432 11.6091 0.836933 11.6091H1.7459C1.72678 11.6921 1.71636 11.7776 1.71776 11.865C1.72684 12.4385 2.20076 12.905 2.77424 12.905H4.95146C4.67765 13.0798 4.44309 13.2649 4.24789 13.4403C3.35065 14.2466 2.87117 15.2074 2.72165 15.8377C2.64104 16.1776 2.71841 16.5286 2.93402 16.8008C3.14665 17.0693 3.46517 17.2231 3.80815 17.2231C3.80891 17.2231 3.80961 17.2231 3.81037 17.2231L4.02376 17.2227C3.93418 17.5103 3.88769 17.8115 3.88769 18.1156C3.88769 19.768 5.23202 21.1123 6.88445 21.1123C8.39946 21.1123 9.6547 19.982 9.85308 18.5205H17.6836C17.9072 18.5205 18.0886 18.3393 18.0886 18.1156C18.0886 17.8517 18.1149 17.5881 18.1669 17.3321C18.3832 16.2666 19.0293 15.3731 19.9011 14.8167L20.3138 15.6421C19.5251 16.1825 19.0065 17.0895 19.0065 18.1156C19.0065 19.768 20.3508 21.1123 22.0032 21.1123C23.6557 21.1123 25 19.768 25 18.1156C25 16.4631 23.6557 15.1188 22.0032 15.1188ZM8.61231 11.1771H12.068C12.3211 11.1771 12.527 11.383 12.527 11.6361C12.527 11.8892 12.3211 12.095 12.068 12.095H8.61231C8.35923 12.095 8.15335 11.8892 8.15335 11.6361C8.15335 11.383 8.35923 11.1771 8.61231 11.1771ZM0.809935 4.72463C0.809935 4.70978 0.82203 4.69763 0.836933 4.69763H6.88445C6.89935 4.69763 6.91145 4.70978 6.91145 4.72463V5.61556H0.809935V4.72463ZM0.836933 10.7991C0.82203 10.7991 0.809935 10.787 0.809935 10.7721V6.42549H6.91145V10.7721C6.91145 10.787 6.89935 10.7991 6.88445 10.7991H0.836933ZM2.77424 12.095C2.64039 12.095 2.52975 11.9861 2.52765 11.8523C2.52657 11.7856 2.55184 11.7227 2.59865 11.6752C2.63159 11.6418 2.67252 11.6197 2.71695 11.6091L7.34411 11.6104C7.34395 11.619 7.34347 11.6274 7.34347 11.6361C7.34347 11.7979 7.37424 11.9526 7.4297 12.095H2.77424ZM3.80886 16.4132C3.80864 16.4132 3.80842 16.4132 3.80821 16.4132C3.67954 16.4132 3.60308 16.341 3.56895 16.2979C3.50832 16.2213 3.48677 16.1218 3.50977 16.0247C3.80821 14.7666 5.36172 12.905 7.74838 12.905C9.60113 12.905 10.2916 14.6757 10.2916 15.7918C10.2916 16.0945 10.1245 16.4013 9.80502 16.4019L3.80886 16.4132ZM7.34341 18.1156C7.34341 18.3686 7.13753 18.5745 6.88445 18.5745C6.63137 18.5745 6.42549 18.3686 6.42549 18.1156C6.42549 17.8625 6.63137 17.6566 6.88445 17.6566C7.13753 17.6566 7.34341 17.8625 7.34341 18.1156ZM6.88445 20.3024C5.67862 20.3024 4.69762 19.3214 4.69762 18.1156C4.69762 17.8059 4.76426 17.5009 4.88963 17.2211L5.98737 17.219C5.75778 17.4488 5.61555 17.7658 5.61555 18.1156C5.61555 18.8152 6.18477 19.3845 6.88445 19.3845C7.58413 19.3845 8.15335 18.8152 8.15335 18.1156C8.15335 17.7641 8.00966 17.4456 7.77802 17.2156L8.87586 17.2135C9.00346 17.4954 9.07127 17.803 9.07127 18.1155C9.07127 19.3214 8.09028 20.3024 6.88445 20.3024ZM17.3732 17.171C17.3371 17.3485 17.3113 17.5289 17.2958 17.7106H9.85356C9.83051 17.5413 9.79293 17.3744 9.74163 17.2119L9.80643 17.2118C10.5447 17.2105 11.1015 16.6 11.1015 15.7918C11.1015 14.9155 10.8098 14.0275 10.3013 13.3556C10.1897 13.2082 10.0543 13.0535 9.89244 12.905H11.2311V14.6598C11.2311 15.8359 12.1879 16.7927 13.3639 16.7927H17.2516C17.3414 16.7927 17.424 16.7631 17.4911 16.7137C17.4448 16.863 17.4048 17.0153 17.3732 17.171ZM18.9795 9.01729H19.4384V9.93521H18.9795C18.7264 9.93521 18.5205 9.72933 18.5205 9.47625C18.5205 9.22317 18.7264 9.01729 18.9795 9.01729ZM17.6566 16.2642V11.738C17.6566 11.5631 17.7538 11.4058 17.9103 11.3275L18.1072 11.229L19.5376 14.0896C18.7107 14.5973 18.0457 15.3534 17.6566 16.2642ZM22.0032 20.3024C20.7974 20.3024 19.8164 19.3214 19.8164 18.1156C19.8164 16.9097 20.7974 15.9287 22.0032 15.9287C23.2091 15.9287 24.1901 16.9097 24.1901 18.1156C24.1901 19.3214 23.2091 20.3024 22.0032 20.3024Z" fill="white"/>
<path d="M22.0033 16.8467C21.3036 16.8467 20.7344 17.4159 20.7344 18.1156C20.7344 18.8152 21.3036 19.3845 22.0033 19.3845C22.7029 19.3845 23.2722 18.8152 23.2722 18.1156C23.2722 17.4159 22.7029 16.8467 22.0033 16.8467ZM22.0033 18.5745C21.7502 18.5745 21.5443 18.3686 21.5443 18.1156C21.5443 17.8625 21.7502 17.6566 22.0033 17.6566C22.2564 17.6566 22.4622 17.8625 22.4622 18.1156C22.4622 18.3686 22.2564 18.5745 22.0033 18.5745Z" fill="white"/>
</svg>
