<svg width="13" height="13" viewBox="0 0 13 13" fill="none" xmlns="http://www.w3.org/2000/svg">
<path d="M7.04176 9.75001C7.04176 10.0491 6.79926 10.2916 6.50013 10.2916C6.201 10.2916 5.9585 10.0491 5.9585 9.75001C5.9585 9.45087 6.201 9.20837 6.50013 9.20837C6.79926 9.20837 7.04176 9.45087 7.04176 9.75001Z" fill="#5A9F63"/>
<path d="M6.5 8.12501C6.27575 8.12501 6.09375 7.94301 6.09375 7.71876V3.11462C6.09375 2.89037 6.27575 2.70837 6.5 2.70837C6.72425 2.70837 6.90625 2.89037 6.90625 3.11462V7.71876C6.90625 7.94301 6.72425 8.12501 6.5 8.12501Z" fill="#5A9F63"/>
<path d="M6.5 13C2.91576 13 0 10.0842 0 6.5C0 2.91576 2.91576 0 6.5 0C10.0842 0 13 2.91576 13 6.5C13 10.0842 10.0842 13 6.5 13ZM6.5 0.8125C3.36376 0.8125 0.8125 3.36376 0.8125 6.5C0.8125 9.63624 3.36376 12.1875 6.5 12.1875C9.63624 12.1875 12.1875 9.63624 12.1875 6.5C12.1875 3.36376 9.63624 0.8125 6.5 0.8125Z" fill="#5A9F63"/>
</svg>
