<svg width="100" height="45" viewBox="0 0 100 45" fill="none" xmlns="http://www.w3.org/2000/svg">
<g clip-path="url(#clip0)">
<path d="M95.6649 18.5367C92.4216 16.3119 81.9459 13.4592 67.2432 13.4592L59.4811 3.3593C57.8378 1.22256 55.4486 0 52.9297 0H29.6865C27.2216 0 24.8324 0.980254 22.9514 2.77555L13.7838 11.5317L4.01081 13.0847C2.62703 13.305 1.49189 14.4395 1.15676 15.9594L0 21.147L25.8595 34.6062H98.2703V23.7353C98.2703 21.6096 97.2865 19.6491 95.6649 18.5367Z" fill="#63D673"/>
<path d="M98.2702 24.991C98.2702 21.147 93.1026 17.3031 68.9621 17.3031H1.72966C0.77831 17.3031 0.0107422 18.1622 0.0107422 19.2306V30.7623L32.7675 36.5337H98.281L98.2702 24.991Z" fill="#5A9F63"/>
<path d="M98.2704 32.6788H17.4271L2.09738 28.8789C1.17846 28.6587 0.248734 29.2975 0.0433282 30.3438C-0.162077 31.3791 0.421707 32.4034 1.35144 32.6347L16.865 36.4786C16.9839 36.5117 17.1136 36.5227 17.2433 36.5227H98.2704C99.2217 36.5227 99.9893 35.6636 99.9893 34.5952C100 33.5379 99.2325 32.6788 98.2704 32.6788Z" fill="#5A9F63"/>
<path d="M79.9999 42.1053C84.6507 42.1053 88.421 38.335 88.421 33.6842C88.421 29.0334 84.6507 25.2632 79.9999 25.2632C75.3491 25.2632 71.5789 29.0334 71.5789 33.6842C71.5789 38.335 75.3491 42.1053 79.9999 42.1053Z" fill="#EDEDEE"/>
<path d="M22.1054 42.1053C26.7562 42.1053 30.5264 38.335 30.5264 33.6842C30.5264 29.0334 26.7562 25.2632 22.1054 25.2632C17.4546 25.2632 13.6843 29.0334 13.6843 33.6842C13.6843 38.335 17.4546 42.1053 22.1054 42.1053Z" fill="#EDEDEE"/>
<path d="M79.9999 44.2105C74.1989 44.2105 69.4736 39.4853 69.4736 33.6842C69.4736 27.8832 74.1889 23.1579 79.9999 23.1579C85.811 23.1579 90.5263 27.8832 90.5263 33.6842C90.5263 39.4853 85.801 44.2105 79.9999 44.2105ZM79.9999 26.6667C76.1292 26.6667 72.9824 29.8135 72.9824 33.6842C72.9824 37.5549 76.1292 40.7018 79.9999 40.7018C83.8707 40.7018 87.0175 37.5549 87.0175 33.6842C87.0175 29.8135 83.8707 26.6667 79.9999 26.6667Z" fill="#504B5A"/>
<path d="M22.1052 44.2105C16.3041 44.2105 11.5789 39.4853 11.5789 33.6842C11.5789 27.8832 16.2941 23.1579 22.1052 23.1579C27.9163 23.1579 32.6315 27.8832 32.6315 33.6842C32.6315 39.4853 27.9062 44.2105 22.1052 44.2105ZM22.1052 26.6667C18.2345 26.6667 15.0876 29.8135 15.0876 33.6842C15.0876 37.5549 18.2345 40.7018 22.1052 40.7018C25.9759 40.7018 29.1227 37.5549 29.1227 33.6842C29.1227 29.8135 25.9759 26.6667 22.1052 26.6667Z" fill="#504B5A"/>
<path d="M13.7947 11.5317L22.9622 2.77555C24.8325 0.980253 27.2217 0 29.6866 0H52.9298C55.4487 0 57.8379 1.22256 59.4704 3.35929L67.2325 13.4592H26.4217C24.8974 13.4592 23.3839 13.316 21.8812 13.0407L13.7947 11.5317Z" fill="#63D673"/>
<path d="M49.4053 3.30422C48.7891 2.42309 47.881 1.91644 46.9188 1.91644H31.9567C31.1026 1.91644 30.2702 2.32396 29.6648 3.03988L24.7999 8.81126C24.3675 9.31791 24.1296 10.0118 24.1296 10.7387C24.1296 12.2366 25.1567 13.4592 26.4215 13.4592H54.8107C55.5026 13.4592 55.8702 12.512 55.4378 11.8842L49.4053 3.30422Z" fill="#625D6B"/>
<path d="M96.0866 19.2196H94.3352C93.2974 19.2196 92.4434 20.0787 92.4434 21.147C92.4434 22.2044 93.2866 23.0745 94.3352 23.0745H98.0217C97.8596 21.5766 97.1785 20.2219 96.0866 19.2196Z" fill="#EDEDEE"/>
<path d="M56.4757 3.35929C56.0865 2.8196 55.654 2.34599 55.1892 1.92746H52.9946C52.3135 1.92746 51.9351 2.87467 52.3784 3.50247L58.3567 12.0714C58.9729 12.9526 59.8702 13.4592 60.8324 13.4592H64.1513L56.4757 3.35929Z" fill="#625D6B"/>
</g>
<defs>
<clipPath id="clip0">
<rect width="100" height="44.2105" fill="white"/>
</clipPath>
</defs>
</svg>
