<svg width="23" height="22" viewBox="0 0 23 22" fill="none" xmlns="http://www.w3.org/2000/svg">
<path d="M22.0417 11.76H0.958333C0.429331 11.76 0 11.3541 0 10.8539C0 10.3538 0.429331 9.94786 0.958333 9.94786H22.0417C22.5707 9.94786 23 10.3538 23 10.8539C23 11.3541 22.5707 11.76 22.0417 11.76Z" fill="#63D673"/>
<path d="M22.0417 4.81345H0.958333C0.429331 4.81345 0 4.40754 0 3.90739C0 3.40724 0.429331 3.00133 0.958333 3.00133H22.0417C22.5707 3.00133 23 3.40724 23 3.90739C23 4.40754 22.5707 4.81345 22.0417 4.81345Z" fill="#63D673"/>
<path d="M22.0417 18.7063H0.958333C0.429331 18.7063 0 18.3004 0 17.8002C0 17.3001 0.429331 16.8942 0.958333 16.8942H22.0417C22.5707 16.8942 23 17.3001 23 17.8002C23 18.3004 22.5707 18.7063 22.0417 18.7063Z" fill="#63D673"/>
</svg>
