<svg width="77" height="60" viewBox="0 0 77 60" fill="none" xmlns="http://www.w3.org/2000/svg">
<g clip-path="url(#clip0)">
<path d="M15.791 0C7.85034 0 1.26323 5.9767 0.18042 13.6871L4.91772 18.2495L24.8144 13.6871L27.0703 9.12474V0H15.791Z" fill="#DCDBDE"/>
<path d="M63.4648 59.3108C68.4484 59.3108 72.4883 55.2255 72.4883 50.1861C72.4883 45.1466 68.4484 41.0613 63.4648 41.0613C58.4813 41.0613 54.4414 45.1466 54.4414 50.1861C54.4414 55.2255 58.4813 59.3108 63.4648 59.3108Z" fill="#504B5A"/>
<path d="M63.4648 54.7484C65.9566 54.7484 67.9766 52.7058 67.9766 50.1861C67.9766 47.6664 65.9566 45.6237 63.4648 45.6237C60.9731 45.6237 58.9531 47.6664 58.9531 50.1861C58.9531 52.7058 60.9731 54.7484 63.4648 54.7484Z" fill="#EFE2DD"/>
<path d="M13.5352 59.3108C18.5187 59.3108 22.5586 55.2255 22.5586 50.1861C22.5586 45.1466 18.5187 41.0613 13.5352 41.0613C8.55165 41.0613 4.51172 45.1466 4.51172 50.1861C4.51172 55.2255 8.55165 59.3108 13.5352 59.3108Z" fill="#504B5A"/>
<path d="M13.5352 54.7484C16.0269 54.7484 18.0469 52.7058 18.0469 50.1861C18.0469 47.6664 16.0269 45.6237 13.5352 45.6237C11.0434 45.6237 9.02344 47.6664 9.02344 50.1861C9.02344 52.7058 11.0434 54.7484 13.5352 54.7484Z" fill="#FFF5F5"/>
<path d="M27.0703 22.8119V9.12476H15.791C12.8584 9.12476 10.3318 11.041 9.42949 13.6871H0.180469C0.0451172 14.4171 0 15.1927 0 15.9683V22.8119H13.5352L22.5586 26.918L27.0703 22.8119Z" fill="#504B5A"/>
<path d="M65.4049 36.6358L63.4648 36.3621V9.12475L60.9232 4.56238L58.141 9.12475C55.9904 9.12475 54.1406 10.6607 53.7195 12.7899L49.9297 36.499C49.9297 39.0083 47.749 41.0613 45.2676 41.0613H40.7559H36.0938C33.6123 41.0613 31.582 39.0083 31.582 36.499V27.3742C31.582 24.8649 29.5518 22.8119 27.0703 22.8119H13.5352C6.07578 22.8119 0 28.9559 0 36.499V45.6237H22.5586L27.0703 50.1861H40.7559H77C77 43.2969 71.9469 37.5787 65.4049 36.6358Z" fill="#5A9F63"/>
<path d="M65.4049 36.6358L63.4648 36.3621V9.12475L60.9232 4.56238L58.141 9.12475C55.9904 9.12475 54.1406 10.6607 53.7195 12.7899L49.9297 36.499C49.9297 39.0083 47.749 41.0613 45.2676 41.0613H40.7559V50.1861H77C77 43.2969 71.9469 37.5787 65.4049 36.6358Z" fill="#5A9F63"/>
<path d="M40.7559 2.28119H52.1855V6.84356H40.7559V2.28119Z" fill="#504B5A"/>
<path d="M13.5352 31.9366C6.06074 31.9366 0 38.0654 0 45.6237V50.1861H27.0703V45.6237C27.0703 38.0654 21.0096 31.9366 13.5352 31.9366Z" fill="#63D673"/>
<path d="M67.9766 9.12474H54.4414C51.9449 9.12474 49.9297 7.08688 49.9297 4.56237C49.9297 2.03786 51.9449 0 54.4414 0H67.9766V9.12474Z" fill="#63D673"/>
</g>
<defs>
<clipPath id="clip0">
<rect width="77" height="59.3108" fill="white"/>
</clipPath>
</defs>
</svg>
