<svg width="19" height="15" viewBox="0 0 19 15" fill="none" xmlns="http://www.w3.org/2000/svg">
<path d="M17.4062 6.7813H3.06755L8.55808 1.55168C8.84558 1.27783 8.85672 0.822866 8.58287 0.535366C8.30939 0.248225 7.85442 0.236725 7.56656 0.510569L1.29619 6.48338C1.02486 6.75507 0.875 7.11588 0.875 7.50005C0.875 7.88387 1.02486 8.24504 1.30877 8.52859L7.56692 14.4892C7.706 14.6218 7.88425 14.6876 8.0625 14.6876C8.25225 14.6876 8.442 14.6128 8.58323 14.4644C8.85708 14.1769 8.84594 13.7223 8.55844 13.4484L3.04491 8.2188H17.4062C17.803 8.2188 18.125 7.8968 18.125 7.50005C18.125 7.1033 17.803 6.7813 17.4062 6.7813Z" fill="#63D673"/>
</svg>
