<svg width="23" height="23" viewBox="0 0 23 23" fill="none" xmlns="http://www.w3.org/2000/svg">
<path d="M19.4062 10.7813H5.06755L10.5581 5.55162C10.8456 5.27778 10.8567 4.82281 10.5829 4.53531C10.3094 4.24817 9.85442 4.23667 9.56656 4.51052L3.29619 10.4833C3.02486 10.755 2.875 11.1158 2.875 11.5C2.875 11.8838 3.02486 12.245 3.30877 12.5285L9.56692 18.4891C9.706 18.6217 9.88425 18.6875 10.0625 18.6875C10.2523 18.6875 10.442 18.6128 10.5832 18.4643C10.8571 18.1768 10.8459 17.7222 10.5584 17.4484L5.04491 12.2188H19.4062C19.803 12.2188 20.125 11.8968 20.125 11.5C20.125 11.1033 19.803 10.7813 19.4062 10.7813Z" fill="white"/>
</svg>
