<svg width="136" height="123" viewBox="0 0 136 123" fill="none" xmlns="http://www.w3.org/2000/svg">
<path d="M29 56.9093L35.7237 13.6285H39.194L41.2544 3H80.8373L128.337 10.9987V18.1209L130.94 19.5453L133 62.4975L129.204 80.5768H122.481L124.541 72.2494L91.682 75.5365L88.7539 90H76.7164L31.6027 78.1662L29 56.9093Z" fill="#63D673"/>
<path d="M29 56.9093L35.7237 13.6285H39.194M29 56.9093L31.6027 78.1662L76.7164 90M29 56.9093L72.9208 64.5793M76.7164 90H88.7539L91.682 75.5365L124.541 72.2494L122.481 80.5768H129.204L133 62.4975M76.7164 90L72.9208 64.5793M133 62.4975L130.94 19.5453L128.337 18.1209M133 62.4975L72.9208 64.5793M128.337 18.1209V10.9987L80.8373 3M128.337 18.1209L79.4709 13.6285M80.8373 3H41.2544L39.194 13.6285M80.8373 3L79.4709 13.6285M39.194 13.6285H79.4709M72.9208 64.5793L79.4709 13.6285" stroke="#F2F2F2" stroke-linejoin="round"/>
<path d="M12 0V77.5" stroke="#63D673" stroke-width="0.5" stroke-linejoin="round"/>
<path d="M81 107H136" stroke="#63D673" stroke-width="0.5" stroke-linejoin="round"/>
<path d="M21 90L70 105" stroke="#63D673" stroke-width="0.5" stroke-linejoin="round"/>
<path d="M109.981 120V112.861H110.812V119.248H113.961V120H109.981Z" fill="#63D673"/>
<path d="M41.0381 102.501C40.2536 102.501 39.6335 102.763 39.1777 103.287C38.7253 103.808 38.499 104.522 38.499 105.431C38.499 106.365 38.7171 107.088 39.1533 107.599C39.5928 108.106 40.2178 108.36 41.0283 108.36C41.5264 108.36 42.0944 108.271 42.7324 108.092V108.819C42.2376 109.005 41.6273 109.098 40.9014 109.098C39.8499 109.098 39.0378 108.779 38.4648 108.141C37.8952 107.503 37.6104 106.596 37.6104 105.421C37.6104 104.685 37.7471 104.041 38.0205 103.487C38.2972 102.934 38.6943 102.507 39.2119 102.208C39.7327 101.909 40.3447 101.759 41.0479 101.759C41.7965 101.759 42.4508 101.896 43.0107 102.169L42.6592 102.882C42.1188 102.628 41.5785 102.501 41.0381 102.501Z" fill="#63D673"/>
<path d="M5.46875 41L4.58008 38.7295H1.71875L0.839844 41H0L2.82227 33.832H3.52051L6.32812 41H5.46875ZM4.32129 37.9824L3.49121 35.7705C3.38379 35.4906 3.27311 35.1471 3.15918 34.7402C3.08757 35.0527 2.98503 35.3962 2.85156 35.7705L2.01172 37.9824H4.32129Z" fill="#63D673"/>
</svg>
