<svg width="97" height="42" viewBox="0 0 97 42" fill="none" xmlns="http://www.w3.org/2000/svg">
<path d="M1.08574 1.64458C1.81791 0.910842 2.67632 0.556625 3.71146 0.556625C4.74659 0.556625 5.605 0.910842 6.33717 1.64458C7.06934 2.37831 7.52379 3.26385 7.4228 4.2759C7.22083 6.52771 4.74659 9.51325 3.71146 9.51325C2.67632 9.51325 0.126346 6.14819 0.000110107 4.2759C-0.0503844 3.18795 0.378819 2.35301 1.08574 1.64458ZM1.28772 12.853C1.28772 12.6506 1.36346 12.4735 1.4897 12.3217C1.64118 12.1699 1.81791 12.1193 2.04514 12.1193H5.35253C5.57975 12.1193 5.75648 12.1952 5.90797 12.3217C6.05945 12.4735 6.13519 12.6506 6.13519 12.853V30.7663C6.13519 30.9687 6.05945 31.1458 5.90797 31.2976C5.75648 31.4494 5.55451 31.5 5.35253 31.5H2.04514C1.81791 31.5 1.64118 31.4241 1.4897 31.2976C1.33821 31.1458 1.28772 30.9687 1.28772 30.7663V12.853Z" fill="#393939"/>
<path d="M15.7293 31.5H12.1694V0H15.7293V13.4349C17.3956 11.7651 19.9203 10.3988 22.3946 10.3988C28.3024 10.3988 32.2915 14.9277 32.2915 20.9747C32.2915 27.0217 27.9742 31.5506 22.3188 31.5506C19.8446 31.5506 17.4209 30.2096 15.7293 28.5145V31.5ZM22.3188 14.194C18.5822 14.194 15.9565 17.306 15.9565 21C15.9565 24.694 18.5065 27.806 22.2431 27.806C25.9797 27.806 28.5297 24.8205 28.5297 21C28.5297 17.306 25.9292 14.194 22.3188 14.194Z" fill="#393939"/>
<path d="M47.1619 14.447C46.5307 14.1434 45.7733 14.0675 44.9402 14.0675C41.8347 14.0675 39.0323 16.6229 38.9818 19.8109L38.9061 31.4747H35.3462V10.4747H38.9061V13.6121C40.6734 11.7145 43.0971 10.3735 45.7733 10.3735C46.8084 10.3735 47.6669 10.5506 48.4495 10.9554L47.1619 14.447Z" fill="#393939"/>
<path d="M51.1006 10.5H54.6605V31.5H51.1006V10.5Z" fill="#393939"/>
<path d="M61.3006 31.5H57.7407V10.5H61.3006V13.6373C63.0679 11.7397 65.8704 10.3988 68.5466 10.3988C72.1822 10.3988 74.8836 13.2578 74.8836 17.0783V31.4747H71.3238V18.8241C71.3238 15.8385 69.9857 14.0675 67.3347 14.0675C64.2293 14.0675 61.4268 16.6229 61.3763 19.8108L61.3006 31.5Z" fill="#393939"/>
<path d="M81.9527 35.7759C83.0889 37.294 85.0834 38.2048 87.1032 38.2048C88.8957 38.2048 90.5873 37.3952 91.7487 36.1554C92.7838 35.0675 93.415 33.6 93.415 31.9554V28.5651C91.7487 30.2349 89.1734 31.6012 86.6992 31.6012C80.9176 31.6012 76.8528 27.0217 76.8528 20.9747C76.8528 14.9277 80.9681 10.4241 86.6235 10.4241C89.0977 10.4241 91.7234 11.7651 93.415 13.4602V10.5H96.9749L96.9496 31.1205C96.9496 34.4349 96.1164 36.9651 93.9704 39.0904C92.1779 40.8868 89.8299 42 87.1032 42C84.0735 42 81.1448 40.659 79.3018 38.4831L81.9527 35.7759ZM86.8002 27.806C90.5368 27.806 93.213 24.8205 93.213 21C93.213 17.306 90.4863 14.194 86.7497 14.194C83.0131 14.194 80.6399 17.1289 80.6399 20.9494C80.6399 24.7699 83.2151 27.806 86.8002 27.806Z" fill="#393939"/>
</svg>
